<svg xmlns="http://www.w3.org/2000/svg" viewBox="0 0 80 80">
  <path d="M15 9L15 57L9 57L9 64C9 67.859375 12.140625 71 16 71L56 71L56 68.578125C54.238281 67.800781 53 66.046875 53 64L53 57L17 57L17 11L63 11L63 41L65 41L65 9 Z M 28 22.5C27.171875 22.5 26.5 23.171875 26.5 24C26.5 24.828125 27.171875 25.5 28 25.5C28.828125 25.5 29.5 24.828125 29.5 24C29.5 23.171875 28.828125 22.5 28 22.5 Z M 33 23L33 25L53 25L53 23 Z M 28 30.5C27.171875 30.5 26.5 31.171875 26.5 32C26.5 32.828125 27.171875 33.5 28 33.5C28.828125 33.5 29.5 32.828125 29.5 32C29.5 31.171875 28.828125 30.5 28 30.5 Z M 33 31L33 33L53 33L53 31 Z M 28 38.5C27.171875 38.5 26.5 39.171875 26.5 40C26.5 40.828125 27.171875 41.5 28 41.5C28.828125 41.5 29.5 40.828125 29.5 40C29.5 39.171875 28.828125 38.5 28 38.5 Z M 33 39L33 41L53 41L53 39 Z M 57 45C56.640625 44.996094 56.304688 45.183594 56.121094 45.496094C55.941406 45.808594 55.941406 46.191406 56.121094 46.503906C56.304688 46.816406 56.640625 47.003906 57 47L58 47L58 54C58 57.652344 60.023438 60.757813 62.953125 62.5C60.023438 64.242188 58 67.347656 58 71L58 78L57 78C56.640625 77.996094 56.304688 78.183594 56.121094 78.496094C55.941406 78.808594 55.941406 79.191406 56.121094 79.503906C56.304688 79.816406 56.640625 80.003906 57 80L79 80C79.359375 80.003906 79.695313 79.816406 79.878906 79.503906C80.058594 79.191406 80.058594 78.808594 79.878906 78.496094C79.695313 78.183594 79.359375 77.996094 79 78L78 78L78 71C78 67.347656 75.976563 64.242188 73.046875 62.5C75.976563 60.757813 78 57.652344 78 54L78 47L79 47C79.359375 47.003906 79.695313 46.816406 79.878906 46.503906C80.058594 46.191406 80.058594 45.808594 79.878906 45.496094C79.695313 45.183594 79.359375 44.996094 79 45 Z M 28 46.5C27.171875 46.5 26.5 47.171875 26.5 48C26.5 48.828125 27.171875 49.5 28 49.5C28.828125 49.5 29.5 48.828125 29.5 48C29.5 47.171875 28.828125 46.5 28 46.5 Z M 33 47L33 49L53 49L53 47 Z M 60 47L76 47L76 49L60 49 Z M 60 51L76 51L76 54C76 57.492188 73.769531 60.4375 70.667969 61.535156L70 61.769531L70 63.230469L70.667969 63.464844C73.769531 64.5625 76 67.507813 76 71L76 74L60 74L60 71C60 67.507813 62.230469 64.5625 65.332031 63.464844L66 63.230469L66 61.769531L65.332031 61.535156C62.230469 60.4375 60 57.492188 60 54 Z M 66 57C65.449219 57 65 57.449219 65 58C65 58.550781 65.449219 59 66 59C66.550781 59 67 58.550781 67 58C67 57.449219 66.550781 57 66 57 Z M 70 57C69.449219 57 69 57.449219 69 58C69 58.550781 69.449219 59 70 59C70.550781 59 71 58.550781 71 58C71 57.449219 70.550781 57 70 57 Z M 11 59L51 59L51 64C51 65.957031 51.808594 67.730469 53.105469 69L16 69C13.242188 69 11 66.757813 11 64 Z M 68 60C67.449219 60 67 60.449219 67 61C67 61.550781 67.449219 62 68 62C68.550781 62 69 61.550781 69 61C69 60.449219 68.550781 60 68 60 Z M 13 61C12.449219 61 12 61.449219 12 62C12 62.550781 12.449219 63 13 63C13.550781 63 14 62.550781 14 62C14 61.449219 13.550781 61 13 61 Z M 17 61C16.449219 61 16 61.449219 16 62C16 62.550781 16.449219 63 17 63C17.550781 63 18 62.550781 18 62C18 61.449219 17.550781 61 17 61 Z M 21 61C20.449219 61 20 61.449219 20 62C20 62.550781 20.449219 63 21 63C21.550781 63 22 62.550781 22 62C22 61.449219 21.550781 61 21 61 Z M 25 61C24.449219 61 24 61.449219 24 62C24 62.550781 24.449219 63 25 63C25.550781 63 26 62.550781 26 62C26 61.449219 25.550781 61 25 61 Z M 29 61C28.449219 61 28 61.449219 28 62C28 62.550781 28.449219 63 29 63C29.550781 63 30 62.550781 30 62C30 61.449219 29.550781 61 29 61 Z M 33 61C32.449219 61 32 61.449219 32 62C32 62.550781 32.449219 63 33 63C33.550781 63 34 62.550781 34 62C34 61.449219 33.550781 61 33 61 Z M 37 61C36.449219 61 36 61.449219 36 62C36 62.550781 36.449219 63 37 63C37.550781 63 38 62.550781 38 62C38 61.449219 37.550781 61 37 61 Z M 41 61C40.449219 61 40 61.449219 40 62C40 62.550781 40.449219 63 41 63C41.550781 63 42 62.550781 42 62C42 61.449219 41.550781 61 41 61 Z M 45 61C44.449219 61 44 61.449219 44 62C44 62.550781 44.449219 63 45 63C45.550781 63 46 62.550781 46 62C46 61.449219 45.550781 61 45 61 Z M 49 61C48.449219 61 48 61.449219 48 62C48 62.550781 48.449219 63 49 63C49.550781 63 50 62.550781 50 62C50 61.449219 49.550781 61 49 61 Z M 66 67C65.449219 67 65 67.449219 65 68C65 68.550781 65.449219 69 66 69C66.550781 69 67 68.550781 67 68C67 67.449219 66.550781 67 66 67 Z M 70 67C69.449219 67 69 67.449219 69 68C69 68.550781 69.449219 69 70 69C70.550781 69 71 68.550781 71 68C71 67.449219 70.550781 67 70 67 Z M 64 70C63.449219 70 63 70.449219 63 71C63 71.550781 63.449219 72 64 72C64.550781 72 65 71.550781 65 71C65 70.449219 64.550781 70 64 70 Z M 68 70C67.449219 70 67 70.449219 67 71C67 71.550781 67.449219 72 68 72C68.550781 72 69 71.550781 69 71C69 70.449219 68.550781 70 68 70 Z M 72 70C71.449219 70 71 70.449219 71 71C71 71.550781 71.449219 72 72 72C72.550781 72 73 71.550781 73 71C73 70.449219 72.550781 70 72 70 Z M 60 76L76 76L76 78L60 78Z" fill="#1562D9" />
</svg>