<svg xmlns="http://www.w3.org/2000/svg" viewBox="0 0 48 48">
  <path d="M24 4C12.978089 4 4 12.978089 4 24C4 35.021911 12.978089 44 24 44C29.354374 44 34.283383 41.887065 37.882812 38.443359 A 2.0002743 2.0002743 0 1 0 35.117188 35.552734C32.244616 38.301028 28.301626 40 24 40C15.139911 40 8 32.860089 8 24C8 15.139911 15.139911 8 24 8C28.348631 8 32.241401 9.6623248 35.113281 12.4375 A 2.0002 2.0002 0 1 0 37.892578 9.5625C34.290459 6.0816752 29.375369 4 24 4 z M 35.978516 15.980469 A 2.0002 2.0002 0 0 0 34.585938 19.414062L37.171875 22L19 22 A 2.0002 2.0002 0 1 0 19 26L37.171875 26L34.585938 28.585938 A 2.0002 2.0002 0 1 0 37.414062 31.414062L43.414062 25.414062 A 2.0002 2.0002 0 0 0 43.414062 22.585938L37.414062 16.585938 A 2.0002 2.0002 0 0 0 35.978516 15.980469 z" fill="#1562D9" />
</svg>