<svg xmlns="http://www.w3.org/2000/svg" viewBox="0 0 40 40"><path fill="#fff" d="M2.5 2.5H37.5V37.5H2.5z"/><path fill="#788b9c" d="M37,3v34H3V3H37 M38,2H2v36h36V2L38,2z"/><path fill="#c5d4de" d="M-7.5 19.5H26.5V20.5H-7.5z" transform="rotate(90 9.5 20)"/><path fill="#c5d4de" d="M-0.5 19.5H33.5V20.5H-0.5z" transform="rotate(90 16.5 20)"/><path fill="#c5d4de" d="M6.5 19.5H40.5V20.5H6.5z" transform="rotate(90 23.5 20)"/><path fill="#c5d4de" d="M13.5 19.5H47.5V20.5H13.5z" transform="rotate(90 30.5 20)"/><path fill="#c5d4de" d="M3 9H37V10H3z" transform="rotate(-180 20 9.5)"/><path fill="#c5d4de" d="M3 16H37V17H3z" transform="rotate(-180 20 16.5)"/><path fill="#c5d4de" d="M3 23H37V24H3z" transform="rotate(-180 20 23.5)"/><path fill="#c5d4de" d="M3 30H37V31H3z" transform="rotate(-180 20 30.5)"/></svg>